HIERARCHY
ROOT Hips
{
  OFFSET 13.6774 106.653 -34.4427
  CHANNELS 6 Xposition Yposition Zposition Zrotation Xrotation Yrotation
  JOINT ToSpine
  {
    OFFSET -2.69724 7.43032 -0.144315
    CHANNELS 3 Zrotation Xrotation Yrotation
    JOINT Spine
    {
      OFFSET -0.0310711 10.7595 1.96963
      CHANNELS 3 Zrotation Xrotation Yrotation
      JOINT Spine1
      {
        OFFSET 19.9056 3.91189 0.764692
        CHANNELS 3 Zrotation Xrotation Yrotation
        JOINT Neck
        {
          OFFSET 25.9749 7.03908 -0.130764
          CHANNELS 3 Zrotation Xrotation Yrotation
          JOINT Head
          {
            OFFSET 9.52751 0.295786 -0.907742
            CHANNELS 3 Zrotation Xrotation Yrotation
            End Site
            {
              OFFSET 16.4037 0.713936 2.7358
            }
          }
        }
        JOINT LeftShoulder
        {
          OFFSET 17.7449 4.33886 11.7777
          CHANNELS 3 Zrotation Xrotation Yrotation
          JOINT LeftArm
          {
            OFFSET 0.911315 1.27913 9.80584
            CHANNELS 3 Zrotation Xrotation Yrotation
            JOINT LeftForeArm
            {
              OFFSET 28.6126 1.18197 -3.53199
              CHANNELS 3 Zrotation Xrotation Yrotation
              JOINT LeftHand
              {
                OFFSET 27.5088 0.0218783 0.327423
                CHANNELS 3 Zrotation Xrotation Yrotation
                End Site
                {
                  OFFSET 18.6038 -0.000155887 0.382096
                }
              }
            }
          }
        }
        JOINT RightShoulder
        {
          OFFSET 17.1009 2.89543 -12.2328
          CHANNELS 3 Zrotation Xrotation Yrotation
          JOINT RightArm
          {
            OFFSET 1.4228 0.178766 -10.211
            CHANNELS 3 Zrotation Xrotation Yrotation
            JOINT RightForeArm
            {
              OFFSET 28.733 1.87905 2.64907
              CHANNELS 3 Zrotation Xrotation Yrotation
              JOINT RightHand
              {
                OFFSET 27.4588 0.290562 -0.101845
                CHANNELS 3 Zrotation Xrotation Yrotation
                End Site
                {
                  OFFSET 17.8396 -0.255518 -0.000602873
                }
              }
            }
          }
        }
      }
    }
  }
  JOINT LeftUpLeg
  {
    OFFSET -5.61296 -2.22332 -10.2353
    CHANNELS 3 Zrotation Xrotation Yrotation
    JOINT LeftLeg
    {
      OFFSET 2.56703 -44.7417 -7.93097
      CHANNELS 3 Zrotation Xrotation Yrotation
      JOINT LeftFoot
      {
        OFFSET 3.16933 -46.5642 -3.96578
        CHANNELS 3 Zrotation Xrotation Yrotation
        JOINT LeftToeBase
        {
          OFFSET 0.346054 -6.02161 12.8035
          CHANNELS 3 Zrotation Xrotation Yrotation
          End Site
          {
            OFFSET 0.134235 -1.35082 5.13018
          }
        }
      }
    }
  }
  JOINT RightUpLeg
  {
    OFFSET -5.7928 -1.72406 10.6446
    CHANNELS 3 Zrotation Xrotation Yrotation
    JOINT RightLeg
    {
      OFFSET -2.57161 -44.7178 -7.85259
      CHANNELS 3 Zrotation Xrotation Yrotation
      JOINT RightFoot
      {
        OFFSET -3.10148 -46.5936 -4.03391
        CHANNELS 3 Zrotation Xrotation Yrotation
        JOINT RightToeBase
        {
          OFFSET -0.0828122 -6.13587 12.8035
          CHANNELS 3 Zrotation Xrotation Yrotation
          End Site
          {
            OFFSET -0.131328 -1.35082 5.13018
          }
        }
      }
    }
  }
}
MOTION
Frames: 7
Frame Time: 0.03333333333333333
0.0000 93.1000 0.0000 48.8474 -40.9646 -31.2916 -71.1911 0.1455 87.3967 116.9412 73.8676 -31.7986 -7.2650 25.0748 4.1824 -165.0009 23.9784 176.4029 -156.0860 63.8316 -175.6755 -0.0541 -11.7897 -31.1319 -77.0623 53.0797 -64.1782 13.0782 5.2315 -67.3291 -0.0625 0.0551 0.1752 -1.4616 5.7560 41.2412 -68.9188 -29.8033 87.8319 17.8594 -5.9938 73.8484 -0.1456 -0.0156 -0.0107 -27.4343 -4.5280 89.6080 -5.8867 56.4641 -7.4512 4.0937 -21.4662 -1.9347 6.3801 -17.2215 26.6386 -59.3122 -2.5057 92.7487 3.8816 55.1648 1.8806 -4.6305 3.3922 0.2185 1.2748 -10.8147 -5.8471 
0.0000 93.1000 0.0000 46.7016 -42.8542 -32.3210 -71.2122 0.2585 87.3423 121.3020 74.2449 -34.1197 -8.6099 26.2676 3.8745 -165.1023 23.8215 176.4579 -157.2568 63.2597 -175.4723 0.2688 -11.2329 -30.1239 -78.7943 55.2352 -58.2556 10.7692 6.0887 -62.0676 -0.1909 0.3785 -0.1871 -1.4464 5.9741 40.9503 -68.4554 -29.1583 92.0233 20.8541 -5.7353 76.1069 -0.0684 -0.4083 -0.0954 -22.6331 -1.6421 89.7254 -4.8058 55.6131 -6.9582 3.3639 -18.3801 -2.0130 6.7798 -17.4060 22.9503 -64.1388 -1.2560 93.0051 1.8518 44.5424 0.9815 -3.4569 2.8066 0.0791 2.1340 -17.3039 -0.2138 
0.0000 93.1000 0.0000 44.6226 -44.4756 -34.1564 -71.0915 0.3188 87.3445 125.1127 74.5896 -35.4896 -9.2645 27.4212 3.2993 -165.8943 23.8539 176.6048 -159.2891 63.2103 -174.5948 0.4892 -11.1792 -29.9033 -79.7484 56.1865 -56.0368 10.9066 7.8161 -55.7770 -0.3008 0.5811 -0.6119 -1.9253 6.9233 40.2605 -69.4543 -28.7024 95.9490 23.5612 -5.2552 78.7686 0.3314 -0.9687 -0.7770 -17.6179 1.0725 89.6740 -5.1822 55.0772 -3.9530 3.0469 -18.6785 -2.3263 5.7821 -14.1751 16.6306 -65.9199 -0.4263 92.9009 0.9785 37.4374 0.0686 -5.1980 2.5369 0.4156 3.3791 -28.1941 3.1046 
0.0000 93.1000 0.0000 42.7553 -44.8675 -36.8784 -71.0012 -0.0223 87.3969 123.0281 74.9986 -35.0577 -8.8755 26.9309 2.7353 -168.3058 23.0167 178.1544 -159.7930 62.8554 -174.0933 -0.0445 -11.5122 -30.2677 -77.6407 56.9921 -56.1217 10.7790 9.1484 -49.1440 -0.2048 0.0868 -0.2692 -2.3851 6.9412 39.9514 -70.3462 -28.6156 98.9198 24.3120 -4.5171 80.1128 -0.0063 -0.7507 -0.6108 -13.9128 3.2698 90.6116 -5.0806 53.2457 -3.6932 3.2729 -18.4644 -2.1838 6.1144 -15.9940 15.4647 -65.2444 -1.3909 88.7242 -1.0788 33.2282 4.7102 -3.3177 -3.3222 0.4000 2.7799 -31.5135 3.9282 
0.0000 93.1000 0.0000 43.8698 -45.7355 -36.0678 -70.9678 -0.4366 87.4220 124.7810 74.0331 -38.4388 -8.4906 26.0812 3.1422 -168.1171 22.7538 179.4707 -157.8906 62.4049 -173.5775 -0.3499 -12.1930 -31.2347 -71.3866 57.2618 -62.9861 8.2618 9.2239 -41.8921 -0.0685 -0.2717 -0.1128 -2.6201 7.1142 40.3736 -71.5771 -28.0630 101.6974 22.4274 -3.5384 81.1960 0.2094 -0.1591 -0.2502 -12.9859 4.9727 92.3120 -4.0658 51.1694 -5.4349 3.1184 -17.1917 -1.7887 6.9317 -17.0001 15.6545 -63.6279 -2.3609 85.8546 -0.9534 34.4718 10.0586 -4.2773 -10.7142 0.5220 2.6221 -28.3119 -5.8280 
0.0000 93.1000 0.0000 48.0142 -45.7859 -35.1284 -70.9222 -0.0121 87.3955 126.8167 72.3726 -42.6561 -8.0765 25.1538 3.7495 -167.0002 21.9250 178.6013 -155.9248 62.3224 -176.2871 -0.0661 -13.0980 -32.6848 -63.7018 57.1163 -71.0954 7.0238 11.0155 -34.1454 -0.1934 0.0278 0.0337 -2.5427 7.0654 42.0032 -73.6344 -27.1102 101.7378 21.8213 -4.0928 80.9503 0.2525 -0.2143 -0.2794 -14.5495 5.4246 93.6487 -3.6625 46.4120 -6.5743 1.6666 -16.2625 -1.8811 6.7984 -16.8821 17.1350 -63.0668 -3.7133 82.6132 -0.6505 35.2378 15.6196 -6.0210 -17.3899 1.1338 2.2809 -24.9803 -10.5855 
0.0000 93.1000 0.0000 49.0110 -46.4381 -32.8692 -71.0747 -0.2297 87.2958 128.8211 71.2106 -42.9508 -8.0824 24.8537 3.0112 -164.2167 21.6957 177.5987 -154.3318 62.3601 -176.0688 -0.5448 -13.1204 -33.1424 -64.1363 55.7899 -73.0654 7.5330 15.6710 -29.0627 -0.1590 -0.4072 0.2992 -3.1663 6.8971 42.9607 -74.9310 -26.0360 99.9742 20.9504 -4.7346 79.0360 -0.0638 0.3331 -0.0845 -15.5260 6.9457 94.4821 -3.8168 43.4301 -7.8538 -0.0200 -15.2649 -1.5592 7.0496 -17.7856 17.9771 -60.9678 -1.3826 84.9747 0.5835 35.3247 8.2475 -6.1107 -23.9677 1.1317 1.9273 -16.4225 -14.0147 
